<?xml version="1.0" standalone="no"?>
<!DOCTYPE svg PUBLIC "-//W3C//DTD SVG 20010904//EN"
 "http://www.w3.org/TR/2001/REC-SVG-20010904/DTD/svg10.dtd">
<svg version="1.0" xmlns="http://www.w3.org/2000/svg"
 width="500.000000pt" height="500.000000pt" viewBox="0 0 500.000000 500.000000"
 preserveAspectRatio="xMidYMid meet">

<g transform="translate(0.000000,500.000000) scale(0.100000,-0.100000)"
fill="#000000" stroke="none">
<path d="M1265 3074 c-68 -35 -114 -106 -115 -175 0 -50 43 -129 86 -158 46
-32 137 -40 181 -17 38 19 93 65 93 77 0 5 -14 16 -31 25 -29 15 -32 14 -53
-5 -24 -23 -68 -41 -98 -41 -11 0 -38 17 -59 39 -33 33 -39 45 -39 81 0 34 6
48 34 76 28 28 41 34 78 34 24 0 54 -7 67 -16 22 -16 24 -15 48 9 30 29 25 40
-27 67 -47 24 -123 26 -165 4z"/>
<path d="M1608 3053 l-38 -39 0 -152 0 -152 40 0 39 0 3 78 3 77 77 3 77 3 3
-81 3 -81 36 54 35 54 3 136 3 137 -41 0 -40 0 -3 -77 -3 -77 -55 -4 c-96 -5
-99 -3 -102 84 l-3 75 -37 -38z"/>
<path d="M1970 2985 l0 -105 115 0 115 0 20 33 c24 38 25 66 5 113 -20 48 -63
64 -170 64 l-85 0 0 -105z m171 25 c12 -7 19 -21 19 -40 0 -35 -23 -50 -74
-50 l-36 0 0 50 0 50 36 0 c19 0 44 -5 55 -10z"/>
<path d="M2424 3084 c-12 -3 -40 -21 -63 -40 -126 -109 -61 -318 104 -332 70
-6 116 11 159 58 81 90 68 211 -29 286 -29 22 -49 28 -93 30 -32 1 -67 0 -78
-2z m132 -94 c70 -50 54 -162 -27 -194 -104 -42 -199 72 -137 164 38 56 110
69 164 30z"/>
<path d="M2751 3078 c0 -14 31 -59 169 -242 l94 -126 43 0 43 0 0 190 0 190
-40 0 -39 0 -3 -127 -3 -127 -95 127 c-92 124 -95 127 -132 127 -24 0 -38 -5
-37 -12z"/>
<path d="M3270 3068 c-77 -39 -121 -131 -99 -210 44 -168 260 -202 350 -55 43
71 33 158 -24 224 -58 66 -146 82 -227 41z m151 -72 c24 -10 49 -61 49 -99 0
-69 -75 -125 -142 -107 -55 16 -83 53 -83 110 0 94 77 136 176 96z"/>
<path d="M3680 3081 c0 -10 95 -81 108 -81 10 0 42 33 42 43 0 4 -15 16 -32
27 -34 20 -118 28 -118 11z"/>
<path d="M3604 2995 c-11 -28 29 -88 71 -107 78 -37 88 -43 99 -61 9 -15 7
-21 -9 -33 -26 -19 -74 -11 -97 17 l-18 21 -29 -22 c-37 -25 -33 -38 21 -73
105 -68 241 1 214 108 -9 35 -54 77 -76 70 -9 -3 -45 15 -87 45 -39 27 -74 50
-77 50 -4 0 -9 -7 -12 -15z"/>
<path d="M2743 2813 l2 -98 38 -3 37 -3 0 42 c0 39 -45 139 -70 154 -6 3 -9
-35 -7 -92z"/>
<path d="M2158 2810 l-37 -5 29 -47 c29 -46 32 -48 76 -48 l46 0 -38 53 c-21
28 -38 52 -38 52 -1 1 -18 -2 -38 -5z"/>
<path d="M1970 2760 l0 -50 40 0 40 0 0 50 0 50 -40 0 -40 0 0 -50z"/>
<path d="M2825 2569 l-30 -7 28 -1 c27 -1 27 -2 27 -66 0 -37 4 -65 10 -65 6
0 10 28 10 65 0 60 2 65 22 65 12 0 18 3 15 7 -9 9 -45 10 -82 2z"/>
<path d="M3243 2568 c-2 -5 5 -8 16 -8 19 0 21 -6 21 -65 0 -37 4 -65 10 -65
6 0 10 28 10 64 0 63 1 65 28 68 16 2 7 6 -26 8 -30 3 -56 2 -59 -2z"/>
<path d="M3550 2573 c-63 -22 -49 -143 17 -143 52 0 76 103 31 134 -24 17 -25
17 -48 9z m43 -20 c30 -51 1 -127 -40 -105 -45 24 -36 112 11 112 14 0 27 -3
29 -7z"/>
<path d="M2450 2500 c0 -40 4 -70 10 -70 6 0 10 26 10 57 l0 57 36 -57 c19
-31 40 -57 45 -57 5 0 9 32 9 70 0 40 -4 70 -10 70 -5 0 -10 -24 -10 -52 l0
-53 -35 53 c-20 28 -40 52 -45 52 -6 0 -10 -31 -10 -70z"/>
<path d="M2641 2565 c-6 -23 2 -111 11 -122 14 -18 53 -16 72 3 18 17 23 124
6 124 -5 0 -10 -24 -10 -54 0 -62 -16 -84 -49 -67 -16 9 -21 24 -24 69 -2 31
-4 53 -6 47z"/>
<path d="M2980 2500 c0 -40 4 -70 10 -70 6 0 10 14 10 30 0 23 5 30 19 30 11
0 23 -12 31 -30 7 -16 16 -30 21 -30 13 0 11 7 -7 35 -15 22 -15 26 0 40 33
34 11 65 -46 65 l-38 0 0 -70z m76 45 c8 -20 -13 -45 -37 -45 -14 0 -19 7 -19
30 0 25 4 30 25 30 14 0 28 -7 31 -15z"/>
<path d="M3150 2500 c0 -40 4 -70 10 -70 6 0 10 30 10 70 0 40 -4 70 -10 70
-6 0 -10 -30 -10 -70z"/>
<path d="M3410 2500 c0 -40 4 -70 10 -70 6 0 10 30 10 70 0 40 -4 70 -10 70
-6 0 -10 -30 -10 -70z"/>
<path d="M3700 2499 c0 -38 4 -68 9 -65 4 3 8 26 7 51 -1 25 2 45 6 45 3 0 20
-22 37 -50 17 -27 35 -50 41 -50 6 0 10 30 10 70 0 81 -18 95 -22 18 l-3 -53
-34 53 c-18 28 -37 52 -42 52 -5 0 -9 -32 -9 -71z"/>
</g>
</svg>
