<?xml version="1.0" encoding="iso-8859-1"?>
<!-- Generator: Adobe Illustrator 19.0.0, SVG Export Plug-In . SVG Version: 6.00 Build 0)  -->
<svg version="1.1" id="Layer_1" xmlns="http://www.w3.org/2000/svg" xmlns:xlink="http://www.w3.org/1999/xlink" x="0px" y="0px"
	 viewBox="0 0 495 495" style="enable-background:new 0 0 495 495;" xml:space="preserve">
<g>
	<path style="fill:#933EC5;" d="M323.1,21.92h-75.61v125.998h40V270.5h-40V495h63.46c27.17,0,49.28-22.11,49.28-49.28V69.69
		C360.23,47.12,344.96,27.48,323.1,21.92z"/>
	<path style="fill:#A258CD;" d="M247.489,353.082h-40L207.49,230.5h40V21.92h75.61V0H171.9v21.92
		c-21.86,5.56-37.13,25.2-37.13,47.77v376.03c0,27.17,22.11,49.28,49.28,49.28h63.44V270.5L247.489,353.082z"/>
	<polygon style="fill:#FFDA44;" points="207.49,230.5 207.489,353.082 247.489,353.082 247.49,270.5 287.49,270.5 287.49,147.918 
		247.49,147.918 247.49,230.5 	"/>
</g>
<g>
</g>
<g>
</g>
<g>
</g>
<g>
</g>
<g>
</g>
<g>
</g>
<g>
</g>
<g>
</g>
<g>
</g>
<g>
</g>
<g>
</g>
<g>
</g>
<g>
</g>
<g>
</g>
<g>
</g>
</svg>
